<?xml version="1.0" encoding="UTF-8"?> <svg xmlns="http://www.w3.org/2000/svg" width="64" height="64" viewBox="0 0 64 64" fill="none"><g clip-path="url(#clip0_7_36)"><path d="M23.6249 0.199969C17.6374 0.912469 12.4499 3.37497 8.13745 7.56247C4.61245 10.9875 2.29995 14.8625 1.01245 19.5C0.0749485 22.8875 -0.187552 26.1875 0.187448 29.5875C1.19995 38.7 6.71245 46.5375 14.9249 50.55C18.7374 52.425 22.3249 53.25 26.6999 53.2625C31.4249 53.275 36.0124 52.05 39.9624 49.725C40.5249 49.4 41.0249 49.125 41.0749 49.125C41.1374 49.125 44.2999 52.2375 48.1249 56.05C55.7999 63.7 55.65 63.575 57.575 63.8875C60.5625 64.375 63.3875 62.275 63.9 59.2C64.075 58.1375 63.9 57.0125 63.375 55.9C63.0125 55.125 62.45 54.525 56.025 48.0875C50.075 42.125 49.0874 41.0875 49.1999 40.9C53.4624 34.05 54.4625 25.85 51.95 18.3125C51.35 16.5 50.5374 14.7 49.6624 13.2125L49.0874 12.225L50.1374 11.175L51.1874 10.125L51.875 10.3875C53.2625 10.925 55.1 10.55 56.2 9.52497C56.675 9.09997 57.2125 8.27497 57.325 7.82497L57.4 7.49997H60.7H64V6.43747V5.37497H60.75H57.5L57.2 4.71247C55.725 1.43747 51.1874 1.31247 49.5499 4.52497C49.0749 5.46247 48.9874 6.89997 49.3624 7.87497L49.6249 8.56247L48.7124 9.47497L47.7999 10.3875L46.7124 9.13747C41.0499 2.61247 32.1874 -0.812531 23.6249 0.199969ZM29.5124 2.26247C38.5999 3.41247 46.1499 9.24997 49.5124 17.7C51.3874 22.4375 51.6874 28.1875 50.2999 33.1375C49.1249 37.3875 46.9499 41.0625 43.7999 44.15C40.3749 47.5125 36.2999 49.675 31.4749 50.7C29.5749 51.1 25.9374 51.25 23.8749 51.0125C14.0124 49.8875 5.76245 42.9 3.04995 33.375C1.98745 29.675 1.83745 25.275 2.63745 21.5625C4.61245 12.475 11.2874 5.38747 20.1874 2.96247C21.2499 2.66247 23.1624 2.29997 24.1249 2.21247C25.1749 2.09997 28.5499 2.13747 29.5124 2.26247ZM53.9375 4.38747C54.9 4.66247 55.6375 5.82497 55.4375 6.78747C55.3125 7.37497 54.875 7.94997 54.3375 8.26247C53.95 8.47497 53.7125 8.51247 53.175 8.47497C52.05 8.37497 51.375 7.69997 51.275 6.58747C51.2125 5.83747 51.4125 5.33747 51.975 4.81247C52.5125 4.29997 53.1375 4.16247 53.9375 4.38747ZM49.3749 44.4375L50.8124 45.875L48.3374 48.3375L45.8749 50.8125L44.4374 49.375C43.0749 48.025 42.8374 47.7 43.1249 47.6C43.4499 47.4875 45.6374 45.425 46.6374 44.2875C47.2624 43.5875 47.8124 43 47.8624 43C47.8999 43 48.5874 43.65 49.3749 44.4375ZM61.5125 56.875C61.925 57.65 61.9375 59.2 61.5375 59.9375C60.6375 61.625 58.525 62.3375 56.8625 61.5C56.5 61.3125 54.8125 59.725 51.8375 56.775L47.3749 52.325L49.8374 49.85L52.3125 47.375L56.7625 51.8375C59.675 54.75 61.325 56.5125 61.5125 56.875Z" fill="#1A32DC"></path><path d="M24.8125 4.37487C15.425 5.14987 7.53745 11.7624 5.06245 20.9374C4.09995 24.5124 4.09995 28.7624 5.06245 32.3749C6.97495 39.5874 12.2375 45.2749 19.3125 47.7999C23.2 49.1874 28.0375 49.3999 32.1625 48.3624C38.6 46.7499 44.2 42.1124 46.9375 36.1374C48.4125 32.9124 49.0125 30.1749 49.0125 26.6874C49.0125 18.8499 45.075 11.7749 38.4 7.63737C34.4125 5.16237 29.5375 3.98737 24.8125 4.37487ZM30 6.71237C33.6875 7.31237 37.2875 9.02487 40 11.4624C41.3 12.6249 43.125 14.6749 43.125 14.9499C43.125 15.0124 42.55 15.6374 41.85 16.3374L40.5625 17.6124L39.875 17.3749C38.0375 16.7374 36 17.3749 34.95 18.9124C34.1125 20.1374 33.9375 21.6999 34.5 22.9499L34.725 23.4624L31.2625 26.9249L27.7875 30.3874L26.9875 30.1249C26.025 29.7874 24.8625 29.8249 23.9875 30.2124L23.4125 30.4749L21.0125 28.0749L18.6125 25.6749L18.85 25.1124C19.7375 23.0374 18.8125 20.6124 16.75 19.6374C16.1625 19.3624 15.8875 19.3124 14.9375 19.3124C13.9625 19.3124 13.725 19.3624 13.1 19.6624C12.25 20.0749 11.3625 21.0249 11.05 21.8124L10.8375 22.3749H8.86245H6.88745L7.18745 21.2749C7.76245 19.1374 8.77495 16.9874 10.0875 15.1124C14.55 8.71237 22.2875 5.43737 30 6.71237ZM44.975 18.0874C46.3375 20.9999 46.8875 23.4749 46.8875 26.6749C46.875 33.6249 43.45 39.9249 37.6375 43.6874C35.625 44.9874 33.2 45.9874 30.775 46.5124C29.025 46.8874 25.525 46.9749 23.75 46.6999C21.5875 46.3499 20.225 45.9499 18.3125 45.0999C14.05 43.1874 10.3 39.4999 8.39995 35.3749C6.91245 32.1124 6.38745 29.4249 6.47495 25.4624L6.49995 24.4999H8.66245H10.8125L11.1125 25.1999C11.5 26.0874 12.25 26.8624 13.1875 27.3249C13.8375 27.6374 14.075 27.6874 14.9375 27.6874C15.675 27.6749 16.0875 27.6124 16.5125 27.4124L17.0875 27.1499L19.4875 29.5499L21.8875 31.9624L21.625 32.7624C20.925 34.8249 21.875 37.0499 23.8625 37.9874C24.45 38.2624 24.7375 38.3124 25.625 38.3124C26.5125 38.3124 26.8 38.2624 27.375 37.9874C28.25 37.5749 29.075 36.7499 29.4875 35.8749C29.9 34.9874 29.9375 33.5124 29.575 32.5749L29.3375 31.9749L32.8125 28.4999L36.2875 25.0249L36.8 25.2499C38.05 25.8124 39.6125 25.6374 40.8375 24.7999C42.375 23.7374 43.05 21.6124 42.375 19.8499L42.125 19.1874L43.2125 18.0999C43.8125 17.4874 44.3375 16.9999 44.3875 16.9999C44.425 16.9999 44.6875 17.4874 44.975 18.0874ZM39.5875 19.5749C40.1625 20.0124 40.4125 20.4499 40.475 21.1749C40.675 23.6124 37.3125 24.3624 36.4375 22.0624C36.0625 21.0999 36.45 20.0499 37.375 19.4999C37.9375 19.1624 39.0875 19.1999 39.5875 19.5749ZM15.7875 21.5499C16.0125 21.6374 16.35 21.8999 16.5375 22.1124C17.5 23.2624 17.0875 24.9124 15.6875 25.4499C14.2875 25.9749 12.875 24.9749 12.875 23.4374C12.875 21.9249 14.3625 20.9499 15.7875 21.5499ZM26.4125 32.1749C27.3 32.5374 27.8875 33.6124 27.7 34.5249C27.5125 35.4624 26.5625 36.2499 25.625 36.2499C24.95 36.2499 24.1625 35.7999 23.8125 35.1999C22.8 33.4749 24.5875 31.3999 26.4125 32.1749Z" fill="#1A32DC"></path></g><defs><clipPath id="clip0_7_36"><rect width="64" height="64" fill="white"></rect></clipPath></defs></svg> 