<?xml version="1.0" encoding="UTF-8"?> <svg xmlns="http://www.w3.org/2000/svg" width="179" height="24" viewBox="0 0 179 24" fill="none"><path d="M179 2L167.587 0.244637L171.773 11.0061L179 2ZM3.54878 4.01413C4.06697 4.20516 4.64191 3.93995 4.83295 3.42176C5.02399 2.90357 4.75878 2.32862 4.24059 2.13759L3.54878 4.01413ZM9.97446 4.21548C9.45414 4.0303 8.88223 4.30198 8.69705 4.8223C8.51186 5.34261 8.78354 5.91453 9.30386 6.09971L9.97446 4.21548ZM15.0826 8.11614C15.6052 8.29474 16.1737 8.01586 16.3522 7.49325C16.5308 6.97064 16.252 6.4022 15.7294 6.2236L15.0826 8.11614ZM21.5094 8.15427C20.9843 7.98307 20.4199 8.26994 20.2487 8.79502C20.0775 9.3201 20.3643 9.88455 20.8894 10.0558L21.5094 8.15427ZM26.7284 11.9097C27.2561 12.0726 27.816 11.7768 27.9789 11.2491C28.1418 10.7214 27.846 10.1615 27.3183 9.99864L26.7284 11.9097ZM33.1644 11.748C32.6339 11.5945 32.0794 11.9 31.9258 12.4305C31.7722 12.961 32.0778 13.5156 32.6083 13.6692L33.1644 11.748ZM38.519 15.3188C39.0524 15.462 39.6008 15.1456 39.744 14.6122C39.8872 14.0788 39.5708 13.5303 39.0374 13.3872L38.519 15.3188ZM44.9386 14.9038C44.4022 14.7722 43.8608 15.1004 43.7292 15.6368C43.5976 16.1732 43.9258 16.7146 44.4622 16.8462L44.9386 14.9038ZM50.4418 18.2384C50.9811 18.3571 51.5146 18.0161 51.6333 17.4767C51.752 16.9373 51.411 16.4039 50.8716 16.2852L50.4418 18.2384ZM56.84 17.5178C56.2977 17.4133 55.7734 17.7683 55.6689 18.3106C55.5644 18.8529 55.9193 19.3772 56.4616 19.4817L56.84 17.5178ZM62.5148 20.5597C63.0598 20.6487 63.5738 20.2789 63.6628 19.7338C63.7517 19.1888 63.382 18.6748 62.8369 18.5858L62.5148 20.5597ZM68.8588 19.4746C68.3113 19.4025 67.8089 19.7879 67.7368 20.3355C67.6647 20.8831 68.0501 21.3854 68.5977 21.4575L68.8588 19.4746ZM74.7059 22.1609C75.2555 22.215 75.7449 21.8133 75.7989 21.2636C75.853 20.714 75.4513 20.2246 74.9016 20.1705L74.7059 22.1609ZM80.9607 20.6615C80.4095 20.6265 79.9343 21.045 79.8993 21.5962C79.8643 22.1473 80.2828 22.6225 80.8339 22.6575L80.9607 20.6615ZM86.976 22.9371C87.5281 22.9522 87.9879 22.5169 88.003 21.9649C88.0181 21.4128 87.5828 20.953 87.0308 20.9379L86.976 22.9371ZM93.1077 20.9927C92.5554 20.9979 92.112 21.4498 92.1172 22.0021C92.1224 22.5543 92.5743 22.9978 93.1266 22.9926L93.1077 20.9927ZM99.2771 22.8204C99.8288 22.7947 100.255 22.3266 100.23 21.7749C100.204 21.2232 99.7358 20.7968 99.1841 20.8225L99.2771 22.8204ZM105.249 20.4281C104.698 20.474 104.289 20.9574 104.335 21.5078C104.381 22.0582 104.865 22.4671 105.415 22.4212L105.249 20.4281ZM111.534 21.8001C112.082 21.7345 112.474 21.2369 112.408 20.6885C112.343 20.1401 111.845 19.7487 111.297 19.8142L111.534 21.8001ZM117.324 18.9887C116.778 19.0729 116.404 19.5836 116.488 20.1294C116.572 20.6753 117.083 21.0495 117.628 20.9653L117.324 18.9887ZM123.691 19.9288C124.234 19.827 124.592 19.3045 124.49 18.7617C124.388 18.2188 123.866 17.8612 123.323 17.963L123.691 19.9288ZM129.282 16.7527C128.742 16.8706 128.4 17.4035 128.518 17.9431C128.636 18.4826 129.169 18.8245 129.709 18.7066L129.282 16.7527ZM135.688 17.3128C136.224 17.1802 136.551 16.6381 136.418 16.1019C136.286 15.5658 135.743 15.2387 135.207 15.3713L135.688 17.3128ZM141.099 13.8346C140.566 13.9805 140.252 14.5306 140.398 15.0633C140.544 15.5959 141.094 15.9094 141.627 15.7635L141.099 13.8346ZM147.527 14.0748C148.056 13.917 148.357 13.36 148.2 12.8307C148.042 12.3015 147.485 12.0003 146.956 12.1581L147.527 14.0748ZM152.779 10.3573C152.253 10.5256 151.963 11.0885 152.131 11.6145C152.3 12.1405 152.862 12.4305 153.388 12.2622L152.779 10.3573ZM159.213 10.3405C159.736 10.1629 160.016 9.59498 159.838 9.07203C159.66 8.54907 159.093 8.26908 158.57 8.44665L159.213 10.3405ZM164.33 6.4397C163.809 6.62537 163.538 7.19755 163.724 7.71768C163.91 8.23782 164.482 8.50896 165.002 8.32329L164.33 6.4397ZM170.759 6.22296C171.277 6.03024 171.54 5.45444 171.347 4.93687C171.155 4.4193 170.579 4.15596 170.061 4.34868L170.759 6.22296ZM175.767 2.18452C175.252 2.38335 174.996 2.96223 175.194 3.47748C175.393 3.99273 175.972 4.24924 176.487 4.05042L175.767 2.18452ZM0.64919 2.93645C1.6217 3.30077 2.58818 3.65999 3.54878 4.01413L4.24059 2.13759C3.28334 1.78468 2.32013 1.42668 1.35081 1.06355L0.64919 2.93645ZM9.30386 6.09971C11.2539 6.79373 13.1797 7.46584 15.0826 8.11614L15.7294 6.2236C13.8348 5.57614 11.9169 4.9068 9.97446 4.21548L9.30386 6.09971ZM20.8894 10.0558C22.8595 10.6981 24.8053 11.316 26.7284 11.9097L27.3183 9.99864C25.4057 9.40824 23.4699 8.7935 21.5094 8.15427L20.8894 10.0558ZM32.6083 13.6692C34.6018 14.2463 36.5714 14.7961 38.519 15.3188L39.0374 13.3872C37.1029 12.868 35.1459 12.3216 33.1644 11.748L32.6083 13.6692ZM44.4622 16.8462C46.4772 17.3404 48.4697 17.8045 50.4418 18.2384L50.8716 16.2852C48.9156 15.8547 46.9387 15.3943 44.9386 14.9038L44.4622 16.8462ZM56.4616 19.4817C58.4987 19.8742 60.5155 20.2335 62.5148 20.5597L62.8369 18.5858C60.857 18.2627 58.8589 17.9068 56.84 17.5178L56.4616 19.4817ZM68.5977 21.4575C70.6492 21.7277 72.6843 21.9621 74.7059 22.1609L74.9016 20.1705C72.9023 19.9739 70.889 19.742 68.8588 19.4746L68.5977 21.4575ZM80.8339 22.6575C82.8916 22.7881 84.9379 22.8812 86.976 22.9371L87.0308 20.9379C85.0169 20.8827 82.9946 20.7906 80.9607 20.6615L80.8339 22.6575ZM93.1266 22.9926C95.181 22.9732 97.23 22.9157 99.2771 22.8204L99.1841 20.8225C97.1617 20.9167 95.1373 20.9735 93.1077 20.9927L93.1266 22.9926ZM105.415 22.4212C107.453 22.2513 109.491 22.0441 111.534 21.8001L111.297 19.8142C109.277 20.0555 107.262 20.2602 105.249 20.4281L105.415 22.4212ZM117.628 20.9653C119.641 20.6548 121.661 20.3092 123.691 19.9288L123.323 17.963C121.313 18.3396 119.314 18.6815 117.324 18.9887L117.628 20.9653ZM129.709 18.7066C131.688 18.274 133.681 17.8093 135.688 17.3128L135.207 15.3713C133.217 15.8636 131.243 16.3242 129.282 16.7527L129.709 18.7066ZM141.627 15.7635C143.577 15.2294 145.543 14.6664 147.527 14.0748L146.956 12.1581C144.985 12.7457 143.033 13.3046 141.099 13.8346L141.627 15.7635ZM153.388 12.2622C155.31 11.6472 157.251 11.0066 159.213 10.3405L158.57 8.44665C156.618 9.10918 154.689 9.74611 152.779 10.3573L153.388 12.2622ZM165.002 8.32329C166.9 7.64582 168.818 6.94566 170.759 6.22296L170.061 4.34868C168.128 5.06839 166.218 5.76544 164.33 6.4397L165.002 8.32329ZM179 2L167.587 0.244637L171.773 11.0061L179 2ZM3.54878 4.01413C4.06697 4.20516 4.64191 3.93995 4.83295 3.42176C5.02399 2.90357 4.75878 2.32862 4.24059 2.13759L3.54878 4.01413ZM9.97446 4.21548C9.45414 4.0303 8.88223 4.30198 8.69705 4.8223C8.51186 5.34261 8.78354 5.91453 9.30386 6.09971L9.97446 4.21548ZM15.0826 8.11614C15.6052 8.29474 16.1737 8.01586 16.3522 7.49325C16.5308 6.97064 16.252 6.4022 15.7294 6.2236L15.0826 8.11614ZM21.5094 8.15427C20.9843 7.98307 20.4199 8.26994 20.2487 8.79502C20.0775 9.3201 20.3643 9.88455 20.8894 10.0558L21.5094 8.15427ZM26.7284 11.9097C27.2561 12.0726 27.816 11.7768 27.9789 11.2491C28.1418 10.7214 27.846 10.1615 27.3183 9.99864L26.7284 11.9097ZM33.1644 11.748C32.6339 11.5945 32.0794 11.9 31.9258 12.4305C31.7722 12.961 32.0778 13.5156 32.6083 13.6692L33.1644 11.748ZM38.519 15.3188C39.0524 15.462 39.6008 15.1456 39.744 14.6122C39.8872 14.0788 39.5708 13.5303 39.0374 13.3872L38.519 15.3188ZM44.9386 14.9038C44.4022 14.7722 43.8608 15.1004 43.7292 15.6368C43.5976 16.1732 43.9258 16.7146 44.4622 16.8462L44.9386 14.9038ZM50.4418 18.2384C50.9811 18.3571 51.5146 18.0161 51.6333 17.4767C51.752 16.9373 51.411 16.4039 50.8716 16.2852L50.4418 18.2384ZM56.84 17.5178C56.2977 17.4133 55.7734 17.7683 55.6689 18.3106C55.5644 18.8529 55.9193 19.3772 56.4616 19.4817L56.84 17.5178ZM62.5148 20.5597C63.0598 20.6487 63.5738 20.2789 63.6628 19.7338C63.7517 19.1888 63.382 18.6748 62.8369 18.5858L62.5148 20.5597ZM68.8588 19.4746C68.3113 19.4025 67.8089 19.7879 67.7368 20.3355C67.6647 20.8831 68.0501 21.3854 68.5977 21.4575L68.8588 19.4746ZM74.7059 22.1609C75.2555 22.215 75.7449 21.8133 75.7989 21.2636C75.853 20.714 75.4513 20.2246 74.9016 20.1705L74.7059 22.1609ZM80.9607 20.6615C80.4095 20.6265 79.9343 21.045 79.8993 21.5962C79.8643 22.1473 80.2828 22.6225 80.8339 22.6575L80.9607 20.6615ZM86.976 22.9371C87.5281 22.9522 87.9879 22.5169 88.003 21.9649C88.0181 21.4128 87.5828 20.953 87.0308 20.9379L86.976 22.9371ZM93.1077 20.9927C92.5554 20.9979 92.112 21.4498 92.1172 22.0021C92.1224 22.5543 92.5743 22.9978 93.1266 22.9926L93.1077 20.9927ZM99.2771 22.8204C99.8288 22.7947 100.255 22.3266 100.23 21.7749C100.204 21.2232 99.7358 20.7968 99.1841 20.8225L99.2771 22.8204ZM105.249 20.4281C104.698 20.474 104.289 20.9574 104.335 21.5078C104.381 22.0582 104.865 22.4671 105.415 22.4212L105.249 20.4281ZM111.534 21.8001C112.082 21.7345 112.474 21.2369 112.408 20.6885C112.343 20.1401 111.845 19.7487 111.297 19.8142L111.534 21.8001ZM117.324 18.9887C116.778 19.0729 116.404 19.5836 116.488 20.1294C116.572 20.6753 117.083 21.0495 117.628 20.9653L117.324 18.9887ZM123.691 19.9288C124.234 19.827 124.592 19.3045 124.49 18.7617C124.388 18.2188 123.866 17.8612 123.323 17.963L123.691 19.9288ZM129.282 16.7527C128.742 16.8706 128.4 17.4035 128.518 17.9431C128.636 18.4826 129.169 18.8245 129.709 18.7066L129.282 16.7527ZM135.688 17.3128C136.224 17.1802 136.551 16.6381 136.418 16.1019C136.286 15.5658 135.743 15.2387 135.207 15.3713L135.688 17.3128ZM141.099 13.8346C140.566 13.9805 140.252 14.5306 140.398 15.0633C140.544 15.5959 141.094 15.9094 141.627 15.7635L141.099 13.8346ZM147.527 14.0748C148.056 13.917 148.357 13.36 148.2 12.8307C148.042 12.3015 147.485 12.0003 146.956 12.1581L147.527 14.0748ZM152.779 10.3573C152.253 10.5256 151.963 11.0885 152.131 11.6145C152.3 12.1405 152.862 12.4305 153.388 12.2622L152.779 10.3573ZM159.213 10.3405C159.736 10.1629 160.016 9.59498 159.838 9.07203C159.66 8.54907 159.093 8.26908 158.57 8.44665L159.213 10.3405ZM164.33 6.4397C163.809 6.62537 163.538 7.19755 163.724 7.71768C163.91 8.23782 164.482 8.50896 165.002 8.32329L164.33 6.4397ZM170.759 6.22296C171.277 6.03024 171.54 5.45444 171.347 4.93687C171.155 4.4193 170.579 4.15596 170.061 4.34868L170.759 6.22296ZM175.767 2.18452C175.252 2.38335 174.996 2.96223 175.194 3.47748C175.393 3.99273 175.972 4.24924 176.487 4.05042L175.767 2.18452ZM0.64919 2.93645C1.6217 3.30077 2.58818 3.65999 3.54878 4.01413L4.24059 2.13759C3.28334 1.78468 2.32013 1.42668 1.35081 1.06355L0.64919 2.93645ZM9.30386 6.09971C11.2539 6.79373 13.1797 7.46584 15.0826 8.11614L15.7294 6.2236C13.8348 5.57614 11.9169 4.9068 9.97446 4.21548L9.30386 6.09971ZM20.8894 10.0558C22.8595 10.6981 24.8053 11.316 26.7284 11.9097L27.3183 9.99864C25.4057 9.40824 23.4699 8.7935 21.5094 8.15427L20.8894 10.0558ZM32.6083 13.6692C34.6018 14.2463 36.5714 14.7961 38.519 15.3188L39.0374 13.3872C37.1029 12.868 35.1459 12.3216 33.1644 11.748L32.6083 13.6692ZM44.4622 16.8462C46.4772 17.3404 48.4697 17.8045 50.4418 18.2384L50.8716 16.2852C48.9156 15.8547 46.9387 15.3943 44.9386 14.9038L44.4622 16.8462ZM56.4616 19.4817C58.4987 19.8742 60.5155 20.2335 62.5148 20.5597L62.8369 18.5858C60.857 18.2627 58.8589 17.9068 56.84 17.5178L56.4616 19.4817ZM68.5977 21.4575C70.6492 21.7277 72.6843 21.9621 74.7059 22.1609L74.9016 20.1705C72.9023 19.9739 70.889 19.742 68.8588 19.4746L68.5977 21.4575ZM80.8339 22.6575C82.8916 22.7881 84.9379 22.8812 86.976 22.9371L87.0308 20.9379C85.0169 20.8827 82.9946 20.7906 80.9607 20.6615L80.8339 22.6575ZM93.1266 22.9926C95.181 22.9732 97.23 22.9157 99.2771 22.8204L99.1841 20.8225C97.1617 20.9167 95.1373 20.9735 93.1077 20.9927L93.1266 22.9926ZM105.415 22.4212C107.453 22.2513 109.491 22.0441 111.534 21.8001L111.297 19.8142C109.277 20.0555 107.262 20.2602 105.249 20.4281L105.415 22.4212ZM117.628 20.9653C119.641 20.6548 121.661 20.3092 123.691 19.9288L123.323 17.963C121.313 18.3396 119.314 18.6815 117.324 18.9887L117.628 20.9653ZM129.709 18.7066C131.688 18.274 133.681 17.8093 135.688 17.3128L135.207 15.3713C133.217 15.8636 131.243 16.3242 129.282 16.7527L129.709 18.7066ZM141.627 15.7635C143.577 15.2294 145.543 14.6664 147.527 14.0748L146.956 12.1581C144.985 12.7457 143.033 13.3046 141.099 13.8346L141.627 15.7635ZM153.388 12.2622C155.31 11.6472 157.251 11.0066 159.213 10.3405L158.57 8.44665C156.618 9.10918 154.689 9.74611 152.779 10.3573L153.388 12.2622ZM165.002 8.32329C166.9 7.64582 168.818 6.94566 170.759 6.22296L170.061 4.34868C168.128 5.06839 166.218 5.76544 164.33 6.4397L165.002 8.32329Z" fill="black"></path></svg> 